<?xml version="1.0" encoding="UTF-8"?>
<svg xmlns="http://www.w3.org/2000/svg" baseProfile="tiny" version="1.2" viewBox="0 0 85.04 85.04" fill="#cc5c00c7">
  <!-- Generator: Adobe Illustrator 28.7.4, SVG Export Plug-In . SVG Version: 1.2.0 Build 166)  -->
  <g>
    <g id="_レイヤー_1" data-name="レイヤー_1">
      <polygon points="7.3 12.32 14.89 29.81 14.88 10.64 7.3 12.32"/>
      <path d="M52.1,41.09c0,10.24,5.42,16.19,13.9,18.43v-17.07c-.03-8.17-5.87-15.16-13.9-16.65v15.29Z"/>
      <path d="M23.36,59.51c8.46-2.25,13.85-8.11,13.85-18.42v-15.59h-20.21v21.29h6.35v12.72Z"/>
      <path d="M63.89,72.29c.01-.7-.01-1.41-.08-2.11-.51-15.18-14.25-10.41-13.81-29.09v-15.45l-5.36,6.21-5.25-6.21v15.45c.36,18.66-13.39,13.91-13.89,29.09,0,.68-.07,1.37-.08,2.11h-6.29v6.37h51v-6.37h-6.24Z"/>
      <circle cx="44.62" cy="14.39" r="7.97"/>
    </g>
  </g>
</svg>