<?xml version="1.0" encoding="UTF-8"?>
<svg xmlns="http://www.w3.org/2000/svg" baseProfile="tiny" version="1.2" viewBox="0 0 113.39 113.39" >
  <!-- Generator: Adobe Illustrator 28.7.4, SVG Export Plug-In . SVG Version: 1.2.0 Build 166)  -->
  <g>
    <g id="_レイヤー_1" data-name="レイヤー_1">
      <path d="M104.87,87.87V8.5H8.49v51h8.51v19.87h-8.51v8.5h8.51v17h8.5v-17h19.85v17h14.18v-17h19.84v17h8.5v-17h17ZM45.35,79.37h-19.84v-19.84h19.84v19.84ZM32.21,43.74c-5.56,0-10.51-3.5-12.37-8.74,5.36,3.9,12.86,2.72,16.76-2.64,3.07-4.21,3.06-9.92,0-14.13,6.84,2.42,10.42,9.92,8.01,16.75-1.86,5.25-6.82,8.76-12.4,8.76ZM68,68h-8.5v-8.5h8.5v8.5ZM68,51h-8.5v-8.5h8.5v8.5ZM79.37,25.51h8.5v8.49h-8.5v-8.49ZM79.37,42.51h8.5v8.49h-8.5v-8.49ZM79.37,59.51h8.5v8.49h-8.5v-8.49Z" fill="#ffffff"/>
    </g>
  </g>
</svg>