<?xml version="1.0" encoding="UTF-8"?>
<svg xmlns="http://www.w3.org/2000/svg" baseProfile="tiny" version="1.2" viewBox="0 0 113.39 113.39">
  <!-- Generator: Adobe Illustrator 28.7.4, SVG Export Plug-In . SVG Version: 1.2.0 Build 166)  -->
  <g>
    <g id="_レイヤー_1" data-name="レイヤー_1">
      <path d="M56.7,48.17c.39,0,.78.03,1.16.09l9-27.77c-.16-5.63-4.85-10.07-10.48-9.91-5.38.15-9.73,4.46-9.91,9.84l9,27.83c.41-.06.82-.08,1.23-.08Z" fill="#040000"/>
      <path d="M51,50.5c.56-.54,1.19-1,1.88-1.37l-9.09-28c-3.4-4.5-9.8-5.39-14.3-2-4.5,3.4-5.39,9.8-2,14.3l23.5,17.07Z" fill="#040000"/>
      <path d="M19.71,55h28.87c.13-.77.38-1.51.72-2.21l-23.93-17.4c-5.42-1.56-11.07,1.56-12.64,6.97s1.56,11.07,6.98,12.64Z" fill="#040000"/>
      <path d="M49.3,60c-.34-.7-.59-1.44-.72-2.21h-29.58c-5.3,1.93-8.04,7.8-6.1,13.1,1.93,5.3,7.8,8.04,13.1,6.11h0l23.3-17Z" fill="#040000"/>
      <path d="M51,62.33l-23.85,17.29c-3.02,4.75-1.62,11.05,3.13,14.07,4.48,2.85,10.4,1.78,13.6-2.46l9-27.53c-.69-.37-1.32-.83-1.88-1.37Z" fill="#040000"/>
      <path d="M56.7,64.66c-.39,0-.78-.03-1.16-.09l-9,27.76c.25,5.62,5.01,9.98,10.63,9.73,5.27-.23,9.49-4.46,9.73-9.73l-9-27.76c-.4.06-.8.09-1.2.09Z" fill="#040000"/>
      <path d="M62.43,62.34c-.56.54-1.19,1-1.88,1.37l8.94,27.54c3.21,4.63,9.55,5.78,14.18,2.57s5.78-9.55,2.57-14.18h0l-23.81-17.3Z" fill="#040000"/>
      <path d="M94.41,57.85h-29.6c-.13.76-.38,1.5-.72,2.2l23.31,16.95c5.37,1.7,11.1-1.28,12.8-6.65,1.59-5.04-.92-10.46-5.8-12.49h.01Z" fill="#040000"/>
      <path d="M64.82,55h28.86c5.36-1.74,8.29-7.5,6.55-12.85-1.65-5.09-6.96-8.03-12.16-6.75l-23.97,17.4c.34.7.59,1.44.72,2.2Z" fill="#040000"/>
      <path d="M62.43,50.5l23.43-17c3.31-4.56,2.29-10.94-2.27-14.25-4.39-3.19-10.51-2.37-13.92,1.85l-9.12,28c.69.38,1.32.85,1.88,1.4Z" fill="#040000"/>
      <circle cx="56.69" cy="56.42" r="5.42" fill="#040000"/>
    </g>
  </g>
</svg>