<svg xmlns="http://www.w3.org/2000/svg" baseProfile="tiny" version="1.2" viewBox="0 0 113.39 113.39" fill="#cc5c00c7">
  <!-- Generator: Adobe Illustrator 28.7.4, SVG Export Plug-In . SVG Version: 1.2.0 Build 166)  -->
  <g>
    <g id="_レイヤー_1" data-name="レイヤー_1">
      <path d="M60.94,107.72h40.48v-57.28c0-24.71-20.03-44.74-44.74-44.74S11.95,25.73,11.95,50.44v57.28h40.49v-5.72H17.63v-51.56c0-21.58,17.49-39.06,39.06-39.06s39.06,17.49,39.06,39.06v51.56h-34.82v5.72Z" />
      <path d="M60.94,99.21h32v-48.77c0-20.01-16.21-36.23-36.22-36.24S20.48,30.42,20.48,50.43h0v48.78h32v-5.67h-26.35v-43.1c0-16.88,13.68-30.56,30.56-30.56s30.56,13.68,30.56,30.56v43.1h-26.31v5.67Z" />
      <path d="M73.23,86.11l-6.49-26c7.58-5.54,9.22-16.18,3.68-23.76-5.54-7.58-16.18-9.22-23.76-3.68-7.58,5.54-9.22,16.18-3.68,23.76,1.03,1.41,2.27,2.65,3.68,3.68l-6.49,26h33.06Z" />
    </g>
  </g>
</svg>